<mxfile host="65bd71144e">
    <diagram id="8lCk30ZssQWYOz32TG3M" name="Å ema A">
        <mxGraphModel dx="646" dy="618" grid="1" gridSize="10" guides="1" tooltips="1" connect="1" arrows="1" fold="1" page="1" pageScale="1" pageWidth="850" pageHeight="1100" math="0" shadow="0">
            <root>
                <mxCell id="0"/>
                <mxCell id="1" parent="0"/>
                <mxCell id="2" value="&lt;font style=&quot;font-size: 40px;&quot;&gt;&lt;i&gt;M&lt;/i&gt;&lt;/font&gt;" style="rounded=0;whiteSpace=wrap;html=1;" vertex="1" parent="1">
                    <mxGeometry x="80" y="200" width="80" height="120" as="geometry"/>
                </mxCell>
                <mxCell id="3" value="E" style="rounded=1;whiteSpace=wrap;html=1;fontSize=40;" vertex="1" parent="1">
                    <mxGeometry x="240" y="210" width="60" height="60" as="geometry"/>
                </mxCell>
                <mxCell id="4" value="" style="endArrow=classic;html=1;fontSize=40;exitX=1.007;exitY=0.331;exitDx=0;exitDy=0;exitPerimeter=0;" edge="1" parent="1" source="2">
                    <mxGeometry width="50" height="50" relative="1" as="geometry">
                        <mxPoint x="170" y="239.62" as="sourcePoint"/>
                        <mxPoint x="240" y="239.62" as="targetPoint"/>
                    </mxGeometry>
                </mxCell>
                <mxCell id="5" value="&lt;font style=&quot;font-size: 30px;&quot;&gt;&lt;i&gt;K&lt;/i&gt;&lt;sub&gt;2&lt;/sub&gt;&lt;/font&gt;" style="text;html=1;strokeColor=none;fillColor=none;align=center;verticalAlign=middle;whiteSpace=wrap;rounded=0;fontSize=40;" vertex="1" parent="1">
                    <mxGeometry x="240" y="320" width="60" height="30" as="geometry"/>
                </mxCell>
                <mxCell id="6" value="" style="endArrow=classic;html=1;fontSize=30;entryX=0.5;entryY=1;entryDx=0;entryDy=0;exitX=0.5;exitY=0;exitDx=0;exitDy=0;" edge="1" parent="1" source="5" target="3">
                    <mxGeometry width="50" height="50" relative="1" as="geometry">
                        <mxPoint x="160" y="370" as="sourcePoint"/>
                        <mxPoint x="210" y="320" as="targetPoint"/>
                    </mxGeometry>
                </mxCell>
                <mxCell id="17" style="edgeStyle=none;html=1;entryX=0;entryY=0.5;entryDx=0;entryDy=0;fontSize=30;" edge="1" parent="1" source="8" target="13">
                    <mxGeometry relative="1" as="geometry"/>
                </mxCell>
                <mxCell id="8" value="||" style="ellipse;whiteSpace=wrap;html=1;aspect=fixed;fontSize=30;" vertex="1" parent="1">
                    <mxGeometry x="560" y="230" width="60" height="60" as="geometry"/>
                </mxCell>
                <mxCell id="9" value="C" style="rounded=1;whiteSpace=wrap;html=1;fontSize=40;" vertex="1" parent="1">
                    <mxGeometry x="400" y="400" width="60" height="60" as="geometry"/>
                </mxCell>
                <mxCell id="10" value="" style="endArrow=classic;html=1;fontSize=30;exitX=1;exitY=0.25;exitDx=0;exitDy=0;entryX=0;entryY=0;entryDx=0;entryDy=0;" edge="1" parent="1" source="3" target="8">
                    <mxGeometry width="50" height="50" relative="1" as="geometry">
                        <mxPoint x="370" y="230" as="sourcePoint"/>
                        <mxPoint x="420" y="180" as="targetPoint"/>
                        <Array as="points">
                            <mxPoint x="520" y="225"/>
                            <mxPoint x="520" y="240"/>
                        </Array>
                    </mxGeometry>
                </mxCell>
                <mxCell id="11" value="" style="endArrow=classic;html=1;fontSize=30;exitX=1;exitY=0.75;exitDx=0;exitDy=0;entryX=0;entryY=0.5;entryDx=0;entryDy=0;" edge="1" parent="1" source="3" target="9">
                    <mxGeometry width="50" height="50" relative="1" as="geometry">
                        <mxPoint x="440" y="330" as="sourcePoint"/>
                        <mxPoint x="490" y="280" as="targetPoint"/>
                        <Array as="points">
                            <mxPoint x="350" y="255"/>
                            <mxPoint x="350" y="430"/>
                        </Array>
                    </mxGeometry>
                </mxCell>
                <mxCell id="12" value="" style="endArrow=classic;html=1;fontSize=30;exitX=1;exitY=0.5;exitDx=0;exitDy=0;entryX=0;entryY=1;entryDx=0;entryDy=0;" edge="1" parent="1" source="9" target="8">
                    <mxGeometry width="50" height="50" relative="1" as="geometry">
                        <mxPoint x="570" y="380" as="sourcePoint"/>
                        <mxPoint x="620" y="330" as="targetPoint"/>
                        <Array as="points">
                            <mxPoint x="520" y="430"/>
                            <mxPoint x="520" y="281"/>
                        </Array>
                    </mxGeometry>
                </mxCell>
                <mxCell id="24" style="edgeStyle=none;html=1;exitX=1;exitY=0.25;exitDx=0;exitDy=0;entryX=0;entryY=0.5;entryDx=0;entryDy=0;fontSize=30;" edge="1" parent="1" source="13" target="22">
                    <mxGeometry relative="1" as="geometry"/>
                </mxCell>
                <mxCell id="25" style="edgeStyle=none;html=1;exitX=1;exitY=0.75;exitDx=0;exitDy=0;entryX=0;entryY=0.5;entryDx=0;entryDy=0;fontSize=30;" edge="1" parent="1" source="13" target="23">
                    <mxGeometry relative="1" as="geometry"/>
                </mxCell>
                <mxCell id="13" value="" style="rounded=0;whiteSpace=wrap;html=1;fillColor=#647687;fontColor=#ffffff;strokeColor=#314354;" vertex="1" parent="1">
                    <mxGeometry x="840" y="200" width="80" height="120" as="geometry"/>
                </mxCell>
                <mxCell id="16" value="" style="rounded=0;whiteSpace=wrap;html=1;fontSize=30;fillColor=#647687;fontColor=#ffffff;strokeColor=#314354;" vertex="1" parent="1">
                    <mxGeometry x="840" y="320" width="80" height="40" as="geometry"/>
                </mxCell>
                <mxCell id="18" value="E(&lt;i&gt;K&lt;/i&gt;&lt;sub&gt;2&lt;/sub&gt;, &lt;i&gt;M&lt;/i&gt;)" style="text;html=1;strokeColor=none;fillColor=none;align=center;verticalAlign=middle;whiteSpace=wrap;rounded=0;fontSize=30;" vertex="1" parent="1">
                    <mxGeometry x="680" y="120" width="120" height="40" as="geometry"/>
                </mxCell>
                <mxCell id="19" value="" style="endArrow=classic;html=1;fontSize=30;exitX=0.75;exitY=1;exitDx=0;exitDy=0;entryX=0.5;entryY=0.25;entryDx=0;entryDy=0;entryPerimeter=0;dashed=1;" edge="1" parent="1" source="18" target="13">
                    <mxGeometry width="50" height="50" relative="1" as="geometry">
                        <mxPoint x="840" y="180" as="sourcePoint"/>
                        <mxPoint x="890" y="130" as="targetPoint"/>
                    </mxGeometry>
                </mxCell>
                <mxCell id="20" value="C(&lt;i&gt;K&lt;/i&gt;&lt;sub&gt;1&lt;/sub&gt;, E(&lt;i&gt;K&lt;/i&gt;&lt;sub&gt;2&lt;/sub&gt;, &lt;i&gt;M&lt;/i&gt;))" style="text;html=1;strokeColor=none;fillColor=none;align=center;verticalAlign=middle;whiteSpace=wrap;rounded=0;fontSize=30;" vertex="1" parent="1">
                    <mxGeometry x="630" y="440" width="210" height="40" as="geometry"/>
                </mxCell>
                <mxCell id="21" value="" style="endArrow=classic;html=1;dashed=1;fontSize=30;exitX=0.75;exitY=0;exitDx=0;exitDy=0;entryX=0.5;entryY=0.5;entryDx=0;entryDy=0;entryPerimeter=0;" edge="1" parent="1" source="20" target="16">
                    <mxGeometry width="50" height="50" relative="1" as="geometry">
                        <mxPoint x="740" y="410" as="sourcePoint"/>
                        <mxPoint x="790" y="360" as="targetPoint"/>
                    </mxGeometry>
                </mxCell>
                <mxCell id="36" style="edgeStyle=none;html=1;entryX=0;entryY=0.5;entryDx=0;entryDy=0;fontSize=30;" edge="1" parent="1" source="22" target="35">
                    <mxGeometry relative="1" as="geometry"/>
                </mxCell>
                <mxCell id="22" value="D" style="rounded=1;whiteSpace=wrap;html=1;fontSize=40;" vertex="1" parent="1">
                    <mxGeometry x="1360" y="200" width="60" height="60" as="geometry"/>
                </mxCell>
                <mxCell id="23" value="C" style="rounded=1;whiteSpace=wrap;html=1;fontSize=40;" vertex="1" parent="1">
                    <mxGeometry x="1120" y="260" width="60" height="60" as="geometry"/>
                </mxCell>
                <mxCell id="26" value="Compare" style="text;html=1;strokeColor=none;fillColor=none;align=center;verticalAlign=middle;whiteSpace=wrap;rounded=0;fontSize=30;" vertex="1" parent="1">
                    <mxGeometry x="1240" y="360" width="120" height="30" as="geometry"/>
                </mxCell>
                <mxCell id="27" value="" style="endArrow=classic;html=1;fontSize=30;exitX=1;exitY=0.5;exitDx=0;exitDy=0;entryX=0.5;entryY=1;entryDx=0;entryDy=0;" edge="1" parent="1" source="16" target="26">
                    <mxGeometry width="50" height="50" relative="1" as="geometry">
                        <mxPoint x="1010" y="450" as="sourcePoint"/>
                        <mxPoint x="1060" y="400" as="targetPoint"/>
                        <Array as="points">
                            <mxPoint x="960" y="340"/>
                            <mxPoint x="960" y="480"/>
                            <mxPoint x="1300" y="480"/>
                        </Array>
                    </mxGeometry>
                </mxCell>
                <mxCell id="28" value="" style="endArrow=classic;html=1;fontSize=30;exitX=1;exitY=0.5;exitDx=0;exitDy=0;entryX=0.5;entryY=0;entryDx=0;entryDy=0;" edge="1" parent="1" source="23" target="26">
                    <mxGeometry width="50" height="50" relative="1" as="geometry">
                        <mxPoint x="1260" y="310" as="sourcePoint"/>
                        <mxPoint x="1310" y="260" as="targetPoint"/>
                        <Array as="points">
                            <mxPoint x="1300" y="290"/>
                        </Array>
                    </mxGeometry>
                </mxCell>
                <mxCell id="32" value="&lt;font style=&quot;font-size: 30px;&quot;&gt;&lt;i&gt;K&lt;/i&gt;&lt;sub&gt;2&lt;/sub&gt;&lt;/font&gt;" style="text;html=1;strokeColor=none;fillColor=none;align=center;verticalAlign=middle;whiteSpace=wrap;rounded=0;fontSize=40;" vertex="1" parent="1">
                    <mxGeometry x="1360" y="310" width="60" height="30" as="geometry"/>
                </mxCell>
                <mxCell id="33" value="" style="endArrow=classic;html=1;fontSize=30;exitX=0.5;exitY=0;exitDx=0;exitDy=0;" edge="1" parent="1" source="32">
                    <mxGeometry width="50" height="50" relative="1" as="geometry">
                        <mxPoint x="1280" y="360" as="sourcePoint"/>
                        <mxPoint x="1390" y="260" as="targetPoint"/>
                    </mxGeometry>
                </mxCell>
                <mxCell id="35" value="&lt;font style=&quot;font-size: 40px;&quot;&gt;&lt;i&gt;M&lt;/i&gt;&lt;/font&gt;" style="rounded=0;whiteSpace=wrap;html=1;" vertex="1" parent="1">
                    <mxGeometry x="1480" y="170" width="80" height="120" as="geometry"/>
                </mxCell>
                <mxCell id="39" style="edgeStyle=none;html=1;entryX=0.5;entryY=0;entryDx=0;entryDy=0;fontSize=30;" edge="1" parent="1" source="37" target="9">
                    <mxGeometry relative="1" as="geometry"/>
                </mxCell>
                <mxCell id="37" value="&lt;font style=&quot;font-size: 30px;&quot;&gt;&lt;i&gt;K&lt;/i&gt;&lt;sub&gt;1&lt;/sub&gt;&lt;/font&gt;" style="text;html=1;strokeColor=none;fillColor=none;align=center;verticalAlign=middle;whiteSpace=wrap;rounded=0;fontSize=40;" vertex="1" parent="1">
                    <mxGeometry x="400" y="320" width="60" height="30" as="geometry"/>
                </mxCell>
                <mxCell id="40" value="&lt;font style=&quot;font-size: 30px;&quot;&gt;&lt;i&gt;K&lt;/i&gt;&lt;sub&gt;1&lt;/sub&gt;&lt;/font&gt;" style="text;html=1;strokeColor=none;fillColor=none;align=center;verticalAlign=middle;whiteSpace=wrap;rounded=0;fontSize=40;" vertex="1" parent="1">
                    <mxGeometry x="1120" y="370" width="60" height="30" as="geometry"/>
                </mxCell>
                <mxCell id="41" value="" style="endArrow=classic;html=1;fontSize=30;entryX=0.5;entryY=1;entryDx=0;entryDy=0;exitX=0.5;exitY=0;exitDx=0;exitDy=0;" edge="1" parent="1" source="40">
                    <mxGeometry width="50" height="50" relative="1" as="geometry">
                        <mxPoint x="1040" y="420" as="sourcePoint"/>
                        <mxPoint x="1150" y="320" as="targetPoint"/>
                    </mxGeometry>
                </mxCell>
            </root>
        </mxGraphModel>
    </diagram>
    <diagram id="emZmlBuLgvtkG9A1gyMQ" name="Å ema B">
        <mxGraphModel dx="608" dy="582" grid="1" gridSize="10" guides="1" tooltips="1" connect="1" arrows="1" fold="1" page="1" pageScale="1" pageWidth="850" pageHeight="1100" math="0" shadow="0">
            <root>
                <mxCell id="0"/>
                <mxCell id="1" parent="0"/>
                <mxCell id="pmQ6LN_L_WjtiiHJwBFQ-1" value="&lt;font style=&quot;font-size: 40px;&quot;&gt;&lt;i&gt;M&lt;/i&gt;&lt;/font&gt;" style="rounded=0;whiteSpace=wrap;html=1;" vertex="1" parent="1">
                    <mxGeometry x="220" y="200" width="80" height="120" as="geometry"/>
                </mxCell>
                <mxCell id="pmQ6LN_L_WjtiiHJwBFQ-6" style="edgeStyle=none;html=1;entryX=0;entryY=0.5;entryDx=0;entryDy=0;fontSize=30;exitX=1;exitY=0.5;exitDx=0;exitDy=0;" edge="1" parent="1" source="pmQ6LN_L_WjtiiHJwBFQ-38" target="pmQ6LN_L_WjtiiHJwBFQ-14">
                    <mxGeometry relative="1" as="geometry">
                        <mxPoint x="760" y="260" as="sourcePoint"/>
                    </mxGeometry>
                </mxCell>
                <mxCell id="pmQ6LN_L_WjtiiHJwBFQ-39" style="edgeStyle=none;html=1;entryX=0;entryY=0.5;entryDx=0;entryDy=0;fontSize=30;" edge="1" parent="1" source="pmQ6LN_L_WjtiiHJwBFQ-7" target="pmQ6LN_L_WjtiiHJwBFQ-38">
                    <mxGeometry relative="1" as="geometry"/>
                </mxCell>
                <mxCell id="pmQ6LN_L_WjtiiHJwBFQ-7" value="||" style="ellipse;whiteSpace=wrap;html=1;aspect=fixed;fontSize=30;" vertex="1" parent="1">
                    <mxGeometry x="560" y="230" width="60" height="60" as="geometry"/>
                </mxCell>
                <mxCell id="pmQ6LN_L_WjtiiHJwBFQ-8" value="C" style="rounded=1;whiteSpace=wrap;html=1;fontSize=40;" vertex="1" parent="1">
                    <mxGeometry x="400" y="400" width="60" height="60" as="geometry"/>
                </mxCell>
                <mxCell id="pmQ6LN_L_WjtiiHJwBFQ-9" value="" style="endArrow=classic;html=1;fontSize=30;exitX=0.991;exitY=0.208;exitDx=0;exitDy=0;entryX=0;entryY=0;entryDx=0;entryDy=0;exitPerimeter=0;" edge="1" parent="1" source="pmQ6LN_L_WjtiiHJwBFQ-1" target="pmQ6LN_L_WjtiiHJwBFQ-7">
                    <mxGeometry width="50" height="50" relative="1" as="geometry">
                        <mxPoint x="300" y="225" as="sourcePoint"/>
                        <mxPoint x="420" y="180" as="targetPoint"/>
                        <Array as="points">
                            <mxPoint x="520" y="225"/>
                            <mxPoint x="520" y="240"/>
                        </Array>
                    </mxGeometry>
                </mxCell>
                <mxCell id="pmQ6LN_L_WjtiiHJwBFQ-10" value="" style="endArrow=classic;html=1;fontSize=30;exitX=1;exitY=0.75;exitDx=0;exitDy=0;entryX=0;entryY=0.5;entryDx=0;entryDy=0;" edge="1" parent="1" source="pmQ6LN_L_WjtiiHJwBFQ-1" target="pmQ6LN_L_WjtiiHJwBFQ-8">
                    <mxGeometry width="50" height="50" relative="1" as="geometry">
                        <mxPoint x="300" y="255" as="sourcePoint"/>
                        <mxPoint x="490" y="280" as="targetPoint"/>
                        <Array as="points">
                            <mxPoint x="350" y="290"/>
                            <mxPoint x="350" y="430"/>
                        </Array>
                    </mxGeometry>
                </mxCell>
                <mxCell id="pmQ6LN_L_WjtiiHJwBFQ-11" value="" style="endArrow=classic;html=1;fontSize=30;exitX=1;exitY=0.5;exitDx=0;exitDy=0;entryX=0;entryY=1;entryDx=0;entryDy=0;" edge="1" parent="1" source="pmQ6LN_L_WjtiiHJwBFQ-8" target="pmQ6LN_L_WjtiiHJwBFQ-7">
                    <mxGeometry width="50" height="50" relative="1" as="geometry">
                        <mxPoint x="570" y="380" as="sourcePoint"/>
                        <mxPoint x="620" y="330" as="targetPoint"/>
                        <Array as="points">
                            <mxPoint x="520" y="430"/>
                            <mxPoint x="520" y="281"/>
                        </Array>
                    </mxGeometry>
                </mxCell>
                <mxCell id="pmQ6LN_L_WjtiiHJwBFQ-12" style="edgeStyle=none;html=1;exitX=1;exitY=0.5;exitDx=0;exitDy=0;entryX=0;entryY=0.5;entryDx=0;entryDy=0;fontSize=30;" edge="1" parent="1" source="pmQ6LN_L_WjtiiHJwBFQ-14" target="pmQ6LN_L_WjtiiHJwBFQ-21">
                    <mxGeometry relative="1" as="geometry"/>
                </mxCell>
                <mxCell id="pmQ6LN_L_WjtiiHJwBFQ-14" value="" style="rounded=0;whiteSpace=wrap;html=1;fillColor=#647687;fontColor=#ffffff;strokeColor=#314354;" vertex="1" parent="1">
                    <mxGeometry x="880" y="200" width="80" height="120" as="geometry"/>
                </mxCell>
                <mxCell id="pmQ6LN_L_WjtiiHJwBFQ-18" value="E(&lt;i&gt;K&lt;/i&gt;&lt;sub&gt;2&lt;/sub&gt;, [&lt;i&gt;M&lt;/i&gt; || C(&lt;i&gt;K&lt;/i&gt;&lt;sub&gt;1&lt;/sub&gt;, &lt;i&gt;M&lt;/i&gt;)])" style="text;html=1;strokeColor=none;fillColor=none;align=center;verticalAlign=middle;whiteSpace=wrap;rounded=0;fontSize=30;" vertex="1" parent="1">
                    <mxGeometry x="775" y="330" width="290" height="40" as="geometry"/>
                </mxCell>
                <mxCell id="pmQ6LN_L_WjtiiHJwBFQ-20" style="edgeStyle=none;html=1;entryX=0;entryY=0.5;entryDx=0;entryDy=0;fontSize=30;" edge="1" parent="1" source="pmQ6LN_L_WjtiiHJwBFQ-21" target="pmQ6LN_L_WjtiiHJwBFQ-28">
                    <mxGeometry relative="1" as="geometry"/>
                </mxCell>
                <mxCell id="pmQ6LN_L_WjtiiHJwBFQ-21" value="D" style="rounded=1;whiteSpace=wrap;html=1;fontSize=40;" vertex="1" parent="1">
                    <mxGeometry x="1080" y="230" width="60" height="60" as="geometry"/>
                </mxCell>
                <mxCell id="pmQ6LN_L_WjtiiHJwBFQ-23" value="Compare" style="text;html=1;strokeColor=none;fillColor=none;align=center;verticalAlign=middle;whiteSpace=wrap;rounded=0;fontSize=30;" vertex="1" parent="1">
                    <mxGeometry x="1500" y="310" width="120" height="30" as="geometry"/>
                </mxCell>
                <mxCell id="pmQ6LN_L_WjtiiHJwBFQ-24" value="" style="endArrow=classic;html=1;fontSize=30;exitX=1;exitY=0.5;exitDx=0;exitDy=0;entryX=0.5;entryY=1;entryDx=0;entryDy=0;" edge="1" parent="1" source="pmQ6LN_L_WjtiiHJwBFQ-37" target="pmQ6LN_L_WjtiiHJwBFQ-23">
                    <mxGeometry width="50" height="50" relative="1" as="geometry">
                        <mxPoint x="1280" y="280" as="sourcePoint"/>
                        <mxPoint x="1420" y="340" as="targetPoint"/>
                        <Array as="points">
                            <mxPoint x="1320" y="340"/>
                            <mxPoint x="1320" y="420"/>
                            <mxPoint x="1560" y="420"/>
                        </Array>
                    </mxGeometry>
                </mxCell>
                <mxCell id="pmQ6LN_L_WjtiiHJwBFQ-25" value="" style="endArrow=classic;html=1;fontSize=30;exitX=1;exitY=0.5;exitDx=0;exitDy=0;entryX=0.5;entryY=0;entryDx=0;entryDy=0;" edge="1" parent="1" source="pmQ6LN_L_WjtiiHJwBFQ-34" target="pmQ6LN_L_WjtiiHJwBFQ-23">
                    <mxGeometry width="50" height="50" relative="1" as="geometry">
                        <mxPoint x="1540" y="229.9999999999999" as="sourcePoint"/>
                        <mxPoint x="1670" y="200" as="targetPoint"/>
                        <Array as="points">
                            <mxPoint x="1560" y="230"/>
                        </Array>
                    </mxGeometry>
                </mxCell>
                <mxCell id="pmQ6LN_L_WjtiiHJwBFQ-26" value="&lt;font style=&quot;font-size: 30px;&quot;&gt;&lt;i&gt;K&lt;/i&gt;&lt;sub&gt;2&lt;/sub&gt;&lt;/font&gt;" style="text;html=1;strokeColor=none;fillColor=none;align=center;verticalAlign=middle;whiteSpace=wrap;rounded=0;fontSize=40;" vertex="1" parent="1">
                    <mxGeometry x="1080" y="340" width="60" height="30" as="geometry"/>
                </mxCell>
                <mxCell id="pmQ6LN_L_WjtiiHJwBFQ-27" value="" style="endArrow=classic;html=1;fontSize=30;exitX=0.5;exitY=0;exitDx=0;exitDy=0;" edge="1" parent="1" source="pmQ6LN_L_WjtiiHJwBFQ-26">
                    <mxGeometry width="50" height="50" relative="1" as="geometry">
                        <mxPoint x="1000" y="390" as="sourcePoint"/>
                        <mxPoint x="1110.0000000000002" y="290.0000000000001" as="targetPoint"/>
                    </mxGeometry>
                </mxCell>
                <mxCell id="pmQ6LN_L_WjtiiHJwBFQ-28" value="&lt;font style=&quot;font-size: 40px;&quot;&gt;&lt;i&gt;M&lt;/i&gt;&lt;/font&gt;" style="rounded=0;whiteSpace=wrap;html=1;" vertex="1" parent="1">
                    <mxGeometry x="1200" y="200" width="80" height="120" as="geometry"/>
                </mxCell>
                <mxCell id="pmQ6LN_L_WjtiiHJwBFQ-29" style="edgeStyle=none;html=1;entryX=0.5;entryY=0;entryDx=0;entryDy=0;fontSize=30;" edge="1" parent="1" source="pmQ6LN_L_WjtiiHJwBFQ-30" target="pmQ6LN_L_WjtiiHJwBFQ-8">
                    <mxGeometry relative="1" as="geometry"/>
                </mxCell>
                <mxCell id="pmQ6LN_L_WjtiiHJwBFQ-30" value="&lt;font style=&quot;font-size: 30px;&quot;&gt;&lt;i&gt;K&lt;/i&gt;&lt;sub&gt;1&lt;/sub&gt;&lt;/font&gt;" style="text;html=1;strokeColor=none;fillColor=none;align=center;verticalAlign=middle;whiteSpace=wrap;rounded=0;fontSize=40;" vertex="1" parent="1">
                    <mxGeometry x="400" y="320" width="60" height="30" as="geometry"/>
                </mxCell>
                <mxCell id="pmQ6LN_L_WjtiiHJwBFQ-33" style="edgeStyle=none;html=1;exitX=1;exitY=0.75;exitDx=0;exitDy=0;entryX=0;entryY=0.5;entryDx=0;entryDy=0;fontSize=30;" edge="1" parent="1" target="pmQ6LN_L_WjtiiHJwBFQ-34">
                    <mxGeometry relative="1" as="geometry">
                        <mxPoint x="1280" y="229.9999999999999" as="sourcePoint"/>
                    </mxGeometry>
                </mxCell>
                <mxCell id="pmQ6LN_L_WjtiiHJwBFQ-34" value="C" style="rounded=1;whiteSpace=wrap;html=1;fontSize=40;" vertex="1" parent="1">
                    <mxGeometry x="1380" y="200" width="60" height="60" as="geometry"/>
                </mxCell>
                <mxCell id="pmQ6LN_L_WjtiiHJwBFQ-35" value="&lt;font style=&quot;font-size: 30px;&quot;&gt;&lt;i&gt;K&lt;/i&gt;&lt;sub&gt;1&lt;/sub&gt;&lt;/font&gt;" style="text;html=1;strokeColor=none;fillColor=none;align=center;verticalAlign=middle;whiteSpace=wrap;rounded=0;fontSize=40;" vertex="1" parent="1">
                    <mxGeometry x="1380" y="310" width="60" height="30" as="geometry"/>
                </mxCell>
                <mxCell id="pmQ6LN_L_WjtiiHJwBFQ-36" value="" style="endArrow=classic;html=1;fontSize=30;entryX=0.5;entryY=1;entryDx=0;entryDy=0;exitX=0.5;exitY=0;exitDx=0;exitDy=0;" edge="1" parent="1" source="pmQ6LN_L_WjtiiHJwBFQ-35">
                    <mxGeometry width="50" height="50" relative="1" as="geometry">
                        <mxPoint x="1300" y="360" as="sourcePoint"/>
                        <mxPoint x="1410.0000000000002" y="260.0000000000001" as="targetPoint"/>
                    </mxGeometry>
                </mxCell>
                <mxCell id="pmQ6LN_L_WjtiiHJwBFQ-37" value="" style="rounded=0;whiteSpace=wrap;html=1;fontSize=30;fillStyle=cross-hatch;fillColor=#647687;fontColor=#ffffff;strokeColor=#314354;" vertex="1" parent="1">
                    <mxGeometry x="1200" y="320" width="80" height="40" as="geometry"/>
                </mxCell>
                <mxCell id="pmQ6LN_L_WjtiiHJwBFQ-38" value="E" style="rounded=1;whiteSpace=wrap;html=1;fontSize=40;" vertex="1" parent="1">
                    <mxGeometry x="660" y="230" width="60" height="60" as="geometry"/>
                </mxCell>
                <mxCell id="pmQ6LN_L_WjtiiHJwBFQ-40" value="&lt;font style=&quot;font-size: 30px;&quot;&gt;&lt;i&gt;K&lt;/i&gt;&lt;sub&gt;2&lt;/sub&gt;&lt;/font&gt;" style="text;html=1;strokeColor=none;fillColor=none;align=center;verticalAlign=middle;whiteSpace=wrap;rounded=0;fontSize=40;" vertex="1" parent="1">
                    <mxGeometry x="660" y="340" width="60" height="30" as="geometry"/>
                </mxCell>
                <mxCell id="pmQ6LN_L_WjtiiHJwBFQ-41" value="" style="endArrow=classic;html=1;fontSize=30;exitX=0.5;exitY=0;exitDx=0;exitDy=0;" edge="1" parent="1" source="pmQ6LN_L_WjtiiHJwBFQ-40">
                    <mxGeometry width="50" height="50" relative="1" as="geometry">
                        <mxPoint x="580" y="390" as="sourcePoint"/>
                        <mxPoint x="690.0000000000002" y="290.0000000000001" as="targetPoint"/>
                    </mxGeometry>
                </mxCell>
                <mxCell id="ua-C9h5go874v98uwxgD-1" value="C(&lt;i&gt;K&lt;/i&gt;&lt;sub&gt;1&lt;/sub&gt;, &lt;i&gt;M&lt;/i&gt;)" style="text;html=1;strokeColor=none;fillColor=none;align=center;verticalAlign=middle;whiteSpace=wrap;rounded=0;fontSize=30;" vertex="1" parent="1">
                    <mxGeometry x="1100" y="400" width="120" height="40" as="geometry"/>
                </mxCell>
                <mxCell id="ua-C9h5go874v98uwxgD-2" value="" style="endArrow=classic;html=1;fontSize=30;exitX=0.75;exitY=0;exitDx=0;exitDy=0;entryX=0.5;entryY=0.5;entryDx=0;entryDy=0;entryPerimeter=0;" edge="1" parent="1" source="ua-C9h5go874v98uwxgD-1" target="pmQ6LN_L_WjtiiHJwBFQ-37">
                    <mxGeometry width="50" height="50" relative="1" as="geometry">
                        <mxPoint x="1270" y="510" as="sourcePoint"/>
                        <mxPoint x="1320" y="460" as="targetPoint"/>
                    </mxGeometry>
                </mxCell>
            </root>
        </mxGraphModel>
    </diagram>
    <diagram id="sJ5oHdsbUszOzSPh1T8p" name="Å ema C">
        <mxGraphModel dx="1034" dy="989" grid="1" gridSize="10" guides="1" tooltips="1" connect="1" arrows="1" fold="1" page="1" pageScale="1" pageWidth="850" pageHeight="1100" math="0" shadow="0">
            <root>
                <mxCell id="0"/>
                <mxCell id="1" parent="0"/>
                <mxCell id="X6inq7yotXpLVinmX21x-1" value="&lt;font style=&quot;font-size: 40px;&quot;&gt;&lt;i&gt;M&lt;/i&gt;&lt;/font&gt;" style="rounded=0;whiteSpace=wrap;html=1;" vertex="1" parent="1">
                    <mxGeometry x="220" y="200" width="80" height="120" as="geometry"/>
                </mxCell>
                <mxCell id="X6inq7yotXpLVinmX21x-2" style="edgeStyle=none;html=1;entryX=0;entryY=0.5;entryDx=0;entryDy=0;fontSize=30;exitX=1;exitY=0.5;exitDx=0;exitDy=0;" edge="1" parent="1" source="X6inq7yotXpLVinmX21x-4" target="dXFN4ePHGogLxhDC__sP-1">
                    <mxGeometry relative="1" as="geometry">
                        <mxPoint x="720" y="260" as="sourcePoint"/>
                        <mxPoint x="880" y="260" as="targetPoint"/>
                    </mxGeometry>
                </mxCell>
                <mxCell id="X6inq7yotXpLVinmX21x-4" value="||" style="ellipse;whiteSpace=wrap;html=1;aspect=fixed;fontSize=30;" vertex="1" parent="1">
                    <mxGeometry x="560" y="230" width="60" height="60" as="geometry"/>
                </mxCell>
                <mxCell id="X6inq7yotXpLVinmX21x-5" value="C" style="rounded=1;whiteSpace=wrap;html=1;fontSize=40;" vertex="1" parent="1">
                    <mxGeometry x="400" y="400" width="60" height="60" as="geometry"/>
                </mxCell>
                <mxCell id="X6inq7yotXpLVinmX21x-6" value="" style="endArrow=classic;html=1;fontSize=30;exitX=0.991;exitY=0.208;exitDx=0;exitDy=0;entryX=0;entryY=0;entryDx=0;entryDy=0;exitPerimeter=0;" edge="1" parent="1" source="X6inq7yotXpLVinmX21x-1" target="X6inq7yotXpLVinmX21x-4">
                    <mxGeometry width="50" height="50" relative="1" as="geometry">
                        <mxPoint x="300" y="225" as="sourcePoint"/>
                        <mxPoint x="420" y="180" as="targetPoint"/>
                        <Array as="points">
                            <mxPoint x="520" y="225"/>
                            <mxPoint x="520" y="240"/>
                        </Array>
                    </mxGeometry>
                </mxCell>
                <mxCell id="X6inq7yotXpLVinmX21x-7" value="" style="endArrow=classic;html=1;fontSize=30;exitX=1;exitY=0.75;exitDx=0;exitDy=0;entryX=0;entryY=0.5;entryDx=0;entryDy=0;" edge="1" parent="1" source="X6inq7yotXpLVinmX21x-1" target="X6inq7yotXpLVinmX21x-5">
                    <mxGeometry width="50" height="50" relative="1" as="geometry">
                        <mxPoint x="300" y="255" as="sourcePoint"/>
                        <mxPoint x="490" y="280" as="targetPoint"/>
                        <Array as="points">
                            <mxPoint x="350" y="290"/>
                            <mxPoint x="350" y="430"/>
                        </Array>
                    </mxGeometry>
                </mxCell>
                <mxCell id="X6inq7yotXpLVinmX21x-8" value="" style="endArrow=classic;html=1;fontSize=30;exitX=1;exitY=0.5;exitDx=0;exitDy=0;entryX=0;entryY=1;entryDx=0;entryDy=0;" edge="1" parent="1" source="X6inq7yotXpLVinmX21x-5" target="X6inq7yotXpLVinmX21x-4">
                    <mxGeometry width="50" height="50" relative="1" as="geometry">
                        <mxPoint x="570" y="380" as="sourcePoint"/>
                        <mxPoint x="620" y="330" as="targetPoint"/>
                        <Array as="points">
                            <mxPoint x="520" y="430"/>
                            <mxPoint x="520" y="281"/>
                        </Array>
                    </mxGeometry>
                </mxCell>
                <mxCell id="X6inq7yotXpLVinmX21x-14" value="Compare" style="text;html=1;strokeColor=none;fillColor=none;align=center;verticalAlign=middle;whiteSpace=wrap;rounded=0;fontSize=30;" vertex="1" parent="1">
                    <mxGeometry x="1015" y="310" width="120" height="30" as="geometry"/>
                </mxCell>
                <mxCell id="X6inq7yotXpLVinmX21x-15" value="" style="endArrow=classic;html=1;fontSize=30;exitX=1;exitY=0.5;exitDx=0;exitDy=0;entryX=0.5;entryY=1;entryDx=0;entryDy=0;" edge="1" parent="1" target="X6inq7yotXpLVinmX21x-14">
                    <mxGeometry width="50" height="50" relative="1" as="geometry">
                        <mxPoint x="795" y="340" as="sourcePoint"/>
                        <mxPoint x="935" y="340" as="targetPoint"/>
                        <Array as="points">
                            <mxPoint x="835" y="340"/>
                            <mxPoint x="835" y="420"/>
                            <mxPoint x="1075" y="420"/>
                        </Array>
                    </mxGeometry>
                </mxCell>
                <mxCell id="X6inq7yotXpLVinmX21x-16" value="" style="endArrow=classic;html=1;fontSize=30;exitX=1;exitY=0.5;exitDx=0;exitDy=0;entryX=0.5;entryY=0;entryDx=0;entryDy=0;" edge="1" parent="1" source="X6inq7yotXpLVinmX21x-23" target="X6inq7yotXpLVinmX21x-14">
                    <mxGeometry width="50" height="50" relative="1" as="geometry">
                        <mxPoint x="1055" y="229.9999999999999" as="sourcePoint"/>
                        <mxPoint x="1185" y="200" as="targetPoint"/>
                        <Array as="points">
                            <mxPoint x="1075" y="230"/>
                        </Array>
                    </mxGeometry>
                </mxCell>
                <mxCell id="X6inq7yotXpLVinmX21x-20" style="edgeStyle=none;html=1;entryX=0.5;entryY=0;entryDx=0;entryDy=0;fontSize=30;" edge="1" parent="1" source="X6inq7yotXpLVinmX21x-21" target="X6inq7yotXpLVinmX21x-5">
                    <mxGeometry relative="1" as="geometry"/>
                </mxCell>
                <mxCell id="X6inq7yotXpLVinmX21x-21" value="&lt;font style=&quot;font-size: 30px;&quot;&gt;&lt;i&gt;K&lt;/i&gt;&lt;/font&gt;" style="text;html=1;strokeColor=none;fillColor=none;align=center;verticalAlign=middle;whiteSpace=wrap;rounded=0;fontSize=40;" vertex="1" parent="1">
                    <mxGeometry x="400" y="320" width="60" height="30" as="geometry"/>
                </mxCell>
                <mxCell id="X6inq7yotXpLVinmX21x-22" style="edgeStyle=none;html=1;exitX=1;exitY=0.75;exitDx=0;exitDy=0;entryX=0;entryY=0.5;entryDx=0;entryDy=0;fontSize=30;" edge="1" parent="1" target="X6inq7yotXpLVinmX21x-23">
                    <mxGeometry relative="1" as="geometry">
                        <mxPoint x="795" y="229.9999999999999" as="sourcePoint"/>
                    </mxGeometry>
                </mxCell>
                <mxCell id="X6inq7yotXpLVinmX21x-23" value="C" style="rounded=1;whiteSpace=wrap;html=1;fontSize=40;" vertex="1" parent="1">
                    <mxGeometry x="895" y="200" width="60" height="60" as="geometry"/>
                </mxCell>
                <mxCell id="X6inq7yotXpLVinmX21x-24" value="&lt;font style=&quot;font-size: 30px;&quot;&gt;&lt;i&gt;K&lt;/i&gt;&lt;/font&gt;" style="text;html=1;strokeColor=none;fillColor=none;align=center;verticalAlign=middle;whiteSpace=wrap;rounded=0;fontSize=40;" vertex="1" parent="1">
                    <mxGeometry x="895" y="310" width="60" height="30" as="geometry"/>
                </mxCell>
                <mxCell id="X6inq7yotXpLVinmX21x-25" value="" style="endArrow=classic;html=1;fontSize=30;entryX=0.5;entryY=1;entryDx=0;entryDy=0;exitX=0.5;exitY=0;exitDx=0;exitDy=0;" edge="1" parent="1" source="X6inq7yotXpLVinmX21x-24">
                    <mxGeometry width="50" height="50" relative="1" as="geometry">
                        <mxPoint x="815" y="360" as="sourcePoint"/>
                        <mxPoint x="925.0000000000002" y="260.0000000000001" as="targetPoint"/>
                    </mxGeometry>
                </mxCell>
                <mxCell id="X6inq7yotXpLVinmX21x-30" value="C(&lt;i&gt;K&lt;/i&gt;, &lt;i&gt;M&lt;/i&gt;)" style="text;html=1;strokeColor=none;fillColor=none;align=center;verticalAlign=middle;whiteSpace=wrap;rounded=0;fontSize=30;" vertex="1" parent="1">
                    <mxGeometry x="630" y="400" width="120" height="40" as="geometry"/>
                </mxCell>
                <mxCell id="dXFN4ePHGogLxhDC__sP-1" value="&lt;font style=&quot;font-size: 40px;&quot;&gt;&lt;i&gt;M&lt;/i&gt;&lt;/font&gt;" style="rounded=0;whiteSpace=wrap;html=1;" vertex="1" parent="1">
                    <mxGeometry x="715" y="200" width="80" height="120" as="geometry"/>
                </mxCell>
                <mxCell id="dXFN4ePHGogLxhDC__sP-2" value="" style="rounded=0;whiteSpace=wrap;html=1;fontSize=30;fillStyle=auto;fillColor=#647687;fontColor=#ffffff;strokeColor=#314354;" vertex="1" parent="1">
                    <mxGeometry x="715" y="320" width="80" height="40" as="geometry"/>
                </mxCell>
                <mxCell id="dXFN4ePHGogLxhDC__sP-3" value="" style="endArrow=classic;html=1;fontSize=30;exitX=0.75;exitY=0;exitDx=0;exitDy=0;entryX=0.5;entryY=0.5;entryDx=0;entryDy=0;entryPerimeter=0;" edge="1" parent="1">
                    <mxGeometry width="50" height="50" relative="1" as="geometry">
                        <mxPoint x="705" y="400" as="sourcePoint"/>
                        <mxPoint x="755" y="340" as="targetPoint"/>
                    </mxGeometry>
                </mxCell>
            </root>
        </mxGraphModel>
    </diagram>
</mxfile>
